<?xml version="1.0" encoding="UTF-8"?>
<svg id="_底部平_50x200x1_图像" data-name="底部平 50x200x1 图像" xmlns="http://www.w3.org/2000/svg" viewBox="0 0 907.09 232.31">
  <defs>
    <style>
      .cls-1 {
        fill: #fec40e;
      }
    </style>
  </defs>
  <path class="cls-1" d="M853.9,154c22.84,0,37.52,11.75,37.52,32.95,0,29.04-21.21,45.03-49.92,45.03-23.49,0-38.18-11.42-38.18-32.3,0-29.04,20.88-45.68,50.57-45.68ZM869.56,55.47c22.84,0,37.52,11.74,37.52,32.95,0,29.04-21.53,45.35-49.92,45.35-23.49,0-38.18-11.75-38.18-32.63,0-29.04,20.88-45.68,50.57-45.68Z"/>
  <g>
    <path class="cls-1" d="M42.12,143.56c18.27,15.99,39.81,24.47,58.08,24.47,9.14,0,14.03-2.28,14.03-6.1s-4.57-5.97-15.58-7.55c-33.8-4.83-70.23-25.39-70.23-61.07,0-55.47,47.64-92.01,107.35-92.01,30.67,0,58.73,9.79,76.03,26.75l-39.16,54.49c-19.9-15.34-36.22-18.92-49.12-18.92-9.61,0-15.6,1.99-16.04,5.47-.6,4.74,9.87,6.16,24.14,8.4,19.45,3.05,60.25,21.59,60.27,57.91,0,58.08-48.64,96.91-110.31,96.91-22.19,0-50.9-2.29-81.57-28.06l42.09-60.69h.03Z"/>
    <path class="cls-1" d="M606.24,3.26l-10.12,63.95h-78.31s-2.61,16.97-2.61,16.97h74.39s-9.79,62.32-9.79,62.32h-74.39s-2.94,17.29-2.94,17.29h81.24s-10.12,64.6-10.12,64.6h-163.47S445.71,3.26,445.71,3.26h160.53Z"/>
    <path class="cls-1" d="M705.77,232.31c-57.1,0-99.84-33.61-99.84-96.91C605.92,48.29,670.2,0,742.31,0c46.66,0,66.89,19.25,66.89,19.25l-31.98,71.13s-15.66-15.34-40.78-15.34c-22.51,0-44.37,17.29-44.37,47.64,0,21.21,13.05,32.95,31.65,32.95,19.25,0,38.18-9.79,49.6-17.94l12.07,67.54c-6.85,6.2-31.32,27.08-79.61,27.08Z"/>
    <path class="cls-1" d="M335.43,3.26h-100.5s-35.57,225.13-35.57,225.13h83.2c6.58-41.66,13.17-83.31,19.75-124.97h-.02s6.2-39.15,6.2-39.15h6.52c13.7,0,23.82,1.63,23.82,15.34,0,16.64-11.42,23.82-20.55,23.82h-7.85c-3.23,20.45-6.46,40.9-9.7,61.34h13.16c54.82,0,100.49-29.04,100.49-94.95,0-45.68-34.26-66.56-78.96-66.56Z"/>
  </g>
</svg>