<svg xmlns="http://www.w3.org/2000/svg" viewBox="0 0 512 512">
  <rect width="512" height="512" rx="96" fill="#07111c"/>
  <path d="M176 111 301 35c40-24 89 5 89 52 0 20-10 39-27 50l-92 60 104 66c43 27 42 90-1 116a62 62 0 0 1-66-1L134 267c-39-25-39-82 0-107l42-49Z" fill="#0875e1"/>
  <path d="m141 248 187 119c35 22 35 73 0 96a62 62 0 0 1-66 0L121 373c-31-20-31-66 0-86l20-39Zm234-69 56 36c30 19 30 63 0 82a56 56 0 0 1-60 0l-56-36 60-82Z" fill="#35d000"/>
  <path d="m162 264 71 45-70 45-41-26 40-64Z" fill="#f4f9ff"/>
</svg>
